<?xml version="1.0" encoding="UTF-8" standalone="no"?>
<!-- Created with Inkscape (http://www.inkscape.org/) -->

<svg
   xmlns:dc="http://purl.org/dc/elements/1.1/"
   xmlns:cc="http://creativecommons.org/ns#"
   xmlns:rdf="http://www.w3.org/1999/02/22-rdf-syntax-ns#"
   xmlns:svg="http://www.w3.org/2000/svg"
   xmlns="http://www.w3.org/2000/svg"
   xmlns:sodipodi="http://sodipodi.sourceforge.net/DTD/sodipodi-0.dtd"
   xmlns:inkscape="http://www.inkscape.org/namespaces/inkscape"
   width="210mm"
   height="297mm"
   viewBox="0 0 744.09448819 1052.3622047"
   id="svg2"
   version="1.1"
   inkscape:version="0.91 r13725"
   sodipodi:docname="drawing.svg">
  <defs
     id="defs4" />
  <sodipodi:namedview
     id="base"
     pagecolor="#ffffff"
     bordercolor="#666666"
     borderopacity="1.0"
     inkscape:pageopacity="0.0"
     inkscape:pageshadow="2"
     inkscape:zoom="0.49497475"
     inkscape:cx="-3553.5966"
     inkscape:cy="-249.58304"
     inkscape:document-units="px"
     inkscape:current-layer="layer1"
     showgrid="false"
     showguides="false"
     inkscape:window-width="1536"
     inkscape:window-height="801"
     inkscape:window-x="-8"
     inkscape:window-y="-8"
     inkscape:window-maximized="1" />
  <metadata
     id="metadata7">
    <rdf:RDF>
      <cc:Work
         rdf:about="">
        <dc:format>image/svg+xml</dc:format>
        <dc:type
           rdf:resource="http://purl.org/dc/dcmitype/StillImage" />
        <dc:title></dc:title>
      </cc:Work>
    </rdf:RDF>
  </metadata>
  <g
     inkscape:label="Layer 1"
     inkscape:groupmode="layer"
     id="layer1">
    <path
       style="fill:none;fill-rule:evenodd;stroke:#000000;stroke-width:1.53001416px;stroke-linecap:butt;stroke-linejoin:miter;stroke-opacity:1"
       d="m -4462.5579,707.98241 145.7946,0 -112.6596,-43.25411 222.0055,0 -33.1351,57.67215 728.9728,-5.76721 149.1081,198.96885 16.5677,320.08041 -238.573,2.8837 -79.5242,-265.29194 -106.0326,-66.32296 -331.3513,0 -119.2865,363.3346 -92.7783,-2.8838 109.346,-348.9164 -268.3948,-2.88361 z"
       id="path3422"
       inkscape:connector-curvature="0" />
    <path
       style="fill:none;fill-rule:evenodd;stroke:#000000;stroke-width:1.53001416px;stroke-linecap:butt;stroke-linejoin:miter;stroke-opacity:1"
       d="m -4448.5064,1334.2706 145.7946,0 -112.6596,-43.2541 222.0055,0 -33.1351,57.6721 728.9728,-5.7672 149.1081,198.9688 16.5677,320.0805 -238.573,2.8837 -79.5242,-265.292 -106.0326,-66.3229 -331.3513,0 -119.2865,363.3346 -92.7783,-2.8838 109.346,-348.9164 -268.3948,-2.8837 z"
       id="path3422-6"
       inkscape:connector-curvature="0" />
  </g>
</svg>
